<svg width="1024" height="544" xmlns="http://www.w3.org/2000/svg">
 <!-- Created with Method Draw - http://github.com/duopixel/Method-Draw/ -->

 <g>
  <title>background</title>
  <rect fill="#fff" id="canvas_background" height="546" width="1026" y="-1" x="-1"/>
  <g display="none" id="canvasGrid">
   <rect fill="url(#gridpattern)" stroke-width="0" y="0" x="0" height="100%" width="100%" id="svg_1"/>
  </g>
 </g>
 <g>
  <title>Layer 1</title>
  <ellipse ry="67.5" rx="68" id="svg_4" cy="128.064237" cx="722.722231" fill-opacity="null" stroke-opacity="null" stroke-width="0" stroke="#000" fill="none"/>
  <ellipse stroke="#000" ry="63.499997" rx="67.5" id="svg_5" cy="125.264234" cx="683.222231" stroke-opacity="null" stroke-width="9" fill="none"/>
  <line stroke-linecap="null" stroke-linejoin="null" id="svg_6" y2="393.719518" x2="685.522231" y1="187.564237" x1="685.522231" fill-opacity="null" stroke-opacity="null" stroke-width="9" stroke="#000" fill="none"/>
  <line stroke-linecap="null" stroke-linejoin="null" id="svg_7" y2="277.364237" x2="592.922231" y1="192.364237" x1="682.922231" fill-opacity="null" stroke-opacity="null" stroke-width="9" stroke="#000" fill="none"/>
  <line stroke-linecap="null" stroke-linejoin="null" id="svg_9" y2="303.964237" x2="811.122231" y1="235.964237" x1="688.122231" fill-opacity="null" stroke-opacity="null" stroke-width="9" stroke="#000" fill="none"/>
  <line stroke-linecap="null" stroke-linejoin="null" id="svg_10" y2="467.364237" x2="619.722231" y1="392.364237" x1="684.722231" fill-opacity="null" stroke-opacity="null" stroke-width="9" stroke="#000" fill="none"/>
  <line stroke-linecap="null" stroke-linejoin="null" id="svg_11" y2="502.370296" x2="819.716172" y1="393.370296" x1="685.716172" fill-opacity="null" stroke-opacity="null" stroke-width="9" stroke="#000" fill="none"/>
  <path transform="rotate(-90 906.1588134765625,154.03677368164054) " id="svg_22" d="m914.38707,99.88093c-7.2964,-7.96828 7.43137,-21.45232 14.05203,-12.26716c5.65111,7.96108 -6.91025,18.0829 -14.05203,12.26716zm19.5375,18.13479c-5.96242,-8.77293 10.35232,-18.14609 15.51327,-9.38266c6.126,9.16383 -10.42822,19.62957 -15.51327,9.38266zm22.24206,21.94159c-7.44895,-5.04242 -0.04622,-16.67366 7.66688,-15.63631c10.71395,1.63526 7.85053,19.48959 -2.59904,18.6143c-2.02847,-0.23526 -3.83568,-1.38717 -5.06784,-2.97799zm18.60469,19.3735c-6.22939,-7.92024 8.13532,-18.32254 14.17399,-10.78087c6.56817,8.38924 -8.0904,19.46263 -14.17399,10.78087zm-36.12757,0.43431c-6.92514,-6.55544 3.23983,-17.14753 10.88745,-14.3827c11.11204,3.55689 2.8506,20.65818 -7.06627,16.77305c-1.36418,-0.6462 -2.58581,-1.5351 -3.82118,-2.39035zm-29.45577,0c-8.13933,-7.60152 6.73238,-20.08879 13.69836,-12.13695c7.06756,8.28855 -6.19534,20.04897 -13.69836,12.13695zm-29.09582,-0.43431c-6.23324,-7.91793 8.13932,-18.32613 14.17196,-10.77778c6.54952,8.40258 -8.06817,19.45569 -14.17196,10.77778zm-27.71174,0.43431c-8.13933,-7.60152 6.73238,-20.08879 13.69836,-12.13695c7.06755,8.28855 -6.19535,20.04897 -13.69836,12.13695zm-29.09338,-0.42763c-7.14217,-9.34542 12.17405,-19.5443 15.39449,-7.8206c2.38098,7.84576 -10.51362,14.67781 -15.39449,7.8206zm131.69994,20.77325c-6.94016,-7.20086 5.4038,-19.7806 12.81013,-13.22644c9.14635,6.52923 -2.97273,21.65728 -11.36992,14.6755c-0.4736,-0.48927 -0.95889,-0.96724 -1.44021,-1.44906zm-21.06242,17.85638c-5.85042,-8.34505 9.35607,-17.50427 14.84911,-9.67853c7.16528,8.31294 -7.22614,19.63907 -13.85324,11.33434l-0.99586,-1.65581l-0.00001,0zm-18.8398,22.20767c-6.32081,-5.78235 2.36146,-14.88944 9.24217,-13.34048c10.47318,2.70189 3.87331,19.49833 -5.73292,16.31076c-1.48847,-0.51137 -2.69625,-1.64759 -3.50925,-2.97028z" stroke-width="9" stroke="#00e25e" fill="#00ff65"/>
  <text fill="#ffff56" x="183.823627" y="201.381066" id="svg_2" font-size="57" font-family="Arvo, sans-serif" text-anchor="start" xml:space="preserve" transform="matrix(1.0292118531459005,0,0,1.0292118531459005,137.1351918382285,-4.017695974857446) " stroke="#000">Attention</text>
  <path transform="rotate(-90 855.2980346679688,229.53680419921866) " id="svg_12" d="m858.215814,210.332895c-2.587339,-2.825591 2.6352,-7.607098 4.982919,-4.349995c2.003911,2.823038 -2.450408,6.412285 -4.982919,4.349995zm6.928093,6.430685c-2.114303,-3.110924 3.670983,-6.434692 5.501081,-3.327137c2.17231,3.249539 -3.697898,6.960742 -5.501081,3.327137zm7.887143,7.780595c-2.641434,-1.788067 -0.01639,-5.912561 2.718713,-5.544712c3.799219,0.579871 2.783836,6.911104 -0.921632,6.600722c-0.719305,-0.083424 -1.360151,-0.491897 -1.797081,-1.05601zm6.597314,6.869938c-2.208972,-2.808556 2.884824,-6.497262 5.026166,-3.822949c2.329105,2.974866 -2.868895,6.901544 -5.026166,3.822949zm-12.811013,0.154008c-2.455689,-2.324591 1.14886,-6.080598 3.860743,-5.100176c3.940384,1.261291 1.010837,7.325492 -2.505734,5.947806c-0.483745,-0.229146 -0.916941,-0.544354 -1.355009,-0.84763zm-10.44516,0c-2.886246,-2.695536 2.387335,-7.123583 4.857505,-4.303822c2.506191,2.93916 -2.196898,7.109463 -4.857505,4.303822zm-10.31752,-0.154008c-2.210337,-2.807737 2.886243,-6.498535 5.025446,-3.821854c2.322492,2.979596 -2.861013,6.899083 -5.025446,3.821854zm-9.826719,0.154008c-2.886246,-2.695536 2.387335,-7.123583 4.857505,-4.303822c2.506188,2.93916 -2.196901,7.109463 -4.857505,4.303822zm-10.316655,-0.15164c-2.532648,-3.313932 4.316978,-6.930504 5.458961,-2.773223c0.844307,2.782145 -3.728181,5.204823 -5.458961,2.773223zm46.701443,7.366296c-2.461015,-2.55346 1.916214,-7.014298 4.542535,-4.69016c3.24334,2.315297 -1.054145,7.679777 -4.031829,5.204004c-0.167941,-0.173498 -0.340027,-0.342988 -0.510706,-0.513844zm-7.468837,6.33196c-2.074588,-2.959196 3.317708,-6.2071 5.265567,-3.432054c2.540843,2.947809 -2.562425,6.96411 -4.912427,4.019212l-0.353137,-0.587158l-0.000004,0l0.000001,0zm-6.680685,7.874948c-2.24139,-2.05045 0.837385,-5.279868 3.277319,-4.730599c3.713841,0.958103 1.373495,6.914203 -2.032921,5.783875c-0.527819,-0.181334 -0.956103,-0.584243 -1.244397,-1.053276l-0.000001,0z" stroke-width="2" fill="#00ff65" stroke="#00e25e"/>
  <path transform="rotate(-90 967.2980346679689,268.5368041992187) " id="svg_13" d="m970.21581,249.33289c-2.58733,-2.82559 2.6352,-7.60709 4.98292,-4.34999c2.00391,2.82304 -2.45041,6.41228 -4.98292,4.34999zm6.9281,6.43069c-2.11431,-3.11092 3.67098,-6.43469 5.50108,-3.32714c2.17231,3.24954 -3.6979,6.96074 -5.50108,3.32714zm7.88714,7.7806c-2.64143,-1.78807 -0.01639,-5.91257 2.71871,-5.54472c3.79922,0.57987 2.78384,6.91111 -0.92163,6.60072c-0.7193,-0.08342 -1.36015,-0.49189 -1.79708,-1.056zm6.59731,6.86993c-2.20897,-2.80855 2.88483,-6.49726 5.02617,-3.82295c2.32911,2.97487 -2.86889,6.90155 -5.02617,3.82295zm-12.81101,0.15401c-2.45569,-2.32459 1.14886,-6.0806 3.86074,-5.10017c3.94039,1.26129 1.01084,7.32549 -2.50573,5.9478c-0.48374,-0.22914 -0.91694,-0.54435 -1.35501,-0.84763zm-10.44516,0c-2.88624,-2.69553 2.38734,-7.12358 4.85751,-4.30382c2.50619,2.93916 -2.1969,7.10946 -4.85751,4.30382zm-10.31752,-0.15401c-2.21034,-2.80773 2.88624,-6.49853 5.02545,-3.82185c2.32249,2.9796 -2.86101,6.89908 -5.02545,3.82185zm-9.82672,0.15401c-2.88624,-2.69553 2.38734,-7.12358 4.85751,-4.30382c2.50619,2.93916 -2.1969,7.10946 -4.85751,4.30382zm-10.31665,-0.15164c-2.53265,-3.31393 4.31698,-6.9305 5.45896,-2.77322c0.84431,2.78214 -3.72818,5.20482 -5.45896,2.77322zm46.70144,7.3663c-2.46101,-2.55346 1.91621,-7.0143 4.54254,-4.69016c3.24334,2.31529 -1.05415,7.67977 -4.03183,5.204c-0.16794,-0.1735 -0.34003,-0.34299 -0.51071,-0.51384zm-7.46884,6.33196c-2.07458,-2.9592 3.31771,-6.2071 5.26557,-3.43206c2.54084,2.94781 -2.56242,6.96411 -4.91243,4.01922l-0.35313,-0.58716l-0.00001,0zm-6.68068,7.87495c-2.24139,-2.05045 0.83738,-5.27987 3.27732,-4.7306c3.71384,0.9581 1.37349,6.9142 -2.03292,5.78387c-0.52782,-0.18133 -0.95611,-0.58424 -1.2444,-1.05327z" stroke-width="2" fill="#00ff65" stroke="#00e25e"/>
  <ellipse ry="67.5" rx="68" id="svg_3" cy="125.064237" cx="229.722231" fill-opacity="null" stroke-opacity="null" stroke-width="0" stroke="#000" fill="none"/>
  <ellipse stroke="#000" ry="81.846601" rx="87.002296" id="svg_8" cy="103.917629" cx="170.719935" stroke-opacity="null" stroke-width="9" fill="none"/>
  <line stroke-linecap="null" stroke-linejoin="null" id="svg_14" y2="391.719636" x2="171.519755" y1="185.564355" x1="171.519755" fill-opacity="null" stroke-opacity="null" stroke-width="9" stroke="#000" fill="none"/>
  <line stroke-linecap="null" stroke-linejoin="null" id="svg_15" y2="275.364355" x2="79.919872" y1="190.364355" x1="169.919872" fill-opacity="null" stroke-opacity="null" stroke-width="9" stroke="#000" fill="none"/>
  <line stroke-linecap="null" stroke-linejoin="null" id="svg_16" y2="257.959167" x2="291.119048" y1="189.959167" x1="168.119048" fill-opacity="null" stroke-opacity="null" stroke-width="9" stroke="#000" fill="none"/>
  <line stroke-linecap="null" stroke-linejoin="null" id="svg_17" y2="463.364119" x2="105.719755" y1="388.364119" x1="170.719755" fill-opacity="null" stroke-opacity="null" stroke-width="9" stroke="#000" fill="none"/>
  <line stroke-linecap="null" stroke-linejoin="null" id="svg_18" y2="497.37006" x2="307.713931" y1="388.37006" x1="173.713931" fill-opacity="null" stroke-opacity="null" stroke-width="9" stroke="#000" fill="none"/>
  <path id="svg_20" d="m435.3306,246.898267c-7.2964,-7.96828 7.43137,-21.45232 14.05203,-12.26716c5.65111,7.96108 -6.91025,18.0829 -14.05203,12.26716zm19.5375,18.13479c-5.96242,-8.77293 10.35232,-18.14609 15.51327,-9.38266c6.126,9.16383 -10.42822,19.62957 -15.51327,9.38266zm22.24206,21.94159c-7.44895,-5.04242 -0.04622,-16.67366 7.66688,-15.63631c10.71395,1.63526 7.85053,19.48959 -2.59904,18.6143c-2.02847,-0.23526 -3.83568,-1.38717 -5.06784,-2.97799zm18.60469,19.3735c-6.22939,-7.92024 8.13532,-18.32254 14.17399,-10.78087c6.56817,8.38924 -8.0904,19.46263 -14.17399,10.78087zm-36.12757,0.43431c-6.92514,-6.55544 3.23983,-17.14753 10.88745,-14.3827c11.11204,3.55689 2.8506,20.65818 -7.06627,16.77305c-1.36418,-0.6462 -2.58581,-1.5351 -3.82118,-2.39035zm-29.45577,0c-8.13933,-7.60152 6.73238,-20.08879 13.69836,-12.13695c7.06756,8.28855 -6.19534,20.04897 -13.69836,12.13695zm-29.09582,-0.43431c-6.23324,-7.91793 8.13932,-18.32613 14.17196,-10.77778c6.54952,8.40258 -8.06817,19.45569 -14.17196,10.77778zm-27.71174,0.43431c-8.13933,-7.60152 6.73238,-20.08879 13.69836,-12.13695c7.06755,8.28855 -6.19535,20.04897 -13.69836,12.13695zm-29.09338,-0.42763c-7.14217,-9.34542 12.17405,-19.5443 15.39449,-7.8206c2.38098,7.84576 -10.51362,14.67781 -15.39449,7.8206zm131.69994,20.77325c-6.94016,-7.20086 5.4038,-19.7806 12.81013,-13.22644c9.14635,6.52923 -2.97273,21.65728 -11.36992,14.6755c-0.4736,-0.48927 -0.95889,-0.96724 -1.44021,-1.44906zm-21.06242,17.85638c-5.85042,-8.34505 9.35607,-17.50427 14.84911,-9.67853c7.16528,8.31294 -7.22614,19.63907 -13.85324,11.33434l-0.99586,-1.65581l-0.00001,0zm-18.8398,22.20767c-6.32081,-5.78235 2.36146,-14.88944 9.24217,-13.34048c10.47318,2.70189 3.87331,19.49833 -5.73292,16.31076c-1.48847,-0.51137 -2.69625,-1.64759 -3.50925,-2.97028z" stroke-width="9" stroke="#bfbf00" fill="#ffff00"/>
  <text xml:space="preserve" text-anchor="start" font-family="Arvo, sans-serif" font-size="57" id="svg_23" y="116.434781" x="119.453711" stroke-width="null" stroke="#bfbf00" fill="#00bf00">You</text>
  <text xml:space="preserve" text-anchor="start" font-family="Arvo, sans-serif" font-size="57" id="svg_28" y="423.470986" x="356.481661" stroke-width="null" stroke="#000000" fill="#ffff56">1 point</text>
  <text stroke="#ff0000" transform="matrix(0.6269429326057434,0,0,0.6269429326057434,278.86598689388484,1.643782703205943) " xml:space="preserve" text-anchor="start" font-family="Arvo, sans-serif" font-size="57" id="svg_29" y="67.594311" x="876.74139" stroke-width="2" fill="#ff0000">3 💚 point</text>
  <path id="svg_34" d="m254.869959,36.167269l31.00363,-30.899502l31.00363,30.899502l-15.501816,0l0,31.048185l-31.003628,0l0,-31.048185l-15.501816,0z" stroke-width="0" stroke="#000" fill="#ff0000"/>
  <text stroke="#000" transform="matrix(0.6952652335166931,0,0,0.6952652335166931,101.31478689424694,-3.533018698915839) " xml:space="preserve" text-anchor="start" font-family="Arvo, sans-serif" font-size="57" id="svg_35" y="82.141437" x="324.848131" stroke-width="null" fill="#ff0000">Authority</text>
  <text transform="matrix(0.6947175860404968,0,0,0.6947175860404968,127.14535537641495,129.88812706433237) " stroke="#000000" xml:space="preserve" text-anchor="start" font-family="Arvo, sans-serif" font-size="57" id="svg_36" y="494.752598" x="380.498647" stroke-width="null" fill="#ff0000">* 3 authority</text>
  <path id="svg_37" d="m847.939905,302.198641l31.00363,-30.899502l31.003631,30.899502l-15.501817,0l0,31.048185l-31.003628,0l0,-31.048185l-15.501816,0z" stroke-width="0" stroke="#000" fill="#ff0000"/>
  <path id="svg_38" d="m931.949808,193.185785l31.00363,-30.899502l31.003631,30.899502l-15.501817,0l0,31.048185l-31.003628,0l0,-31.048185l-15.501816,0z" stroke-opacity="null" stroke-width="0" stroke="#000" fill="#ff0000"/>
 </g>
</svg>