<svg width="659" height="544" xmlns="http://www.w3.org/2000/svg">
 <!-- Created with Method Draw - http://github.com/duopixel/Method-Draw/ -->
 <g>
  <title>background</title>
  <rect fill="#fff" id="canvas_background" height="546" width="661" y="-1" x="-1"/>
  <g display="none" overflow="visible" y="0" x="0" height="100%" width="100%" id="canvasGrid">
   <rect fill="url(#gridpattern)" stroke-width="0" y="0" x="0" height="100%" width="100%"/>
  </g>
 </g>
 <g>
  <title>Layer 1</title>
  <rect stroke="#000" id="svg_1" height="446.999985" width="328.000009" y="68.45314" x="35.730551" stroke-width="11.5" fill="#fff"/>
  <rect stroke="#000" id="svg_2" height="38.999998" width="325.999993" y="477.453127" x="36.730569" stroke-width="11.5" fill="#ff0000"/>
  <path stroke="#000" transform="rotate(-24.170867919921875 479.5343627929689,429.75219726562483) " id="svg_3" d="m471.015745,489.34799c-4.232892,-1.955825 -7.704814,-3.777123 -1.129426,-3.830425c5.807003,0.98251 20.8292,-6.239272 8.789529,-9.78895c-7.532178,-3.702258 -24.673748,4.849118 -24.76512,-9.778155c1.362577,-9.166825 23.473747,-2.009436 16.19989,-14.303359c-8.010816,-4.123568 -23.895612,5.59209 -26.582895,-7.167855c2.463406,-12.372283 17.871321,-4.476344 25.615731,-7.895623c7.507596,1.949473 9.484718,-10.478633 1.058765,-8.602762c-19.478492,-1.322925 -39.092848,0.618623 -58.504236,-2.081135c-3.135593,-2.18647 -5.453422,-15.636427 -1.496434,-16.542169c28.276403,-0.737595 56.602777,-0.059641 84.834421,-2.259749c10.142698,-0.13261 2.393119,-13.766894 -5.101759,-10.564925c-7.139301,-2.943093 -9.968626,-10.660103 -15.208401,-18.280046c-2.677603,-16.655738 10.191243,-10.473874 15.446791,-5.600021c5.868581,4.843398 15.962761,14.896923 21.31763,20.174637c4.694081,4.272989 15.508897,9.014548 22.087656,14.742427c5.623287,2.515761 11.77686,1.263278 17.29996,1.71503c0,22.566673 0,45.133017 0,67.699684c-15.625775,8.565336 -32.068428,16.089133 -49.391695,15.228453c-10.147861,-0.052018 -20.587201,0.425753 -30.470403,-2.865049l-0.000005,-0.000007zm64.378914,7.237968c7.97673,-3.858347 15.93899,-7.765862 23.843447,-11.8539c-0.378269,-28.180971 -0.756533,-56.362258 -1.134781,-84.543229c-6.310986,-0.301713 -15.675447,3.639122 -20.173767,-2.163623c-12.093972,-4.886543 -19.946008,-15.694488 -30.548085,-23.806466c-7.461016,-7.380412 -13.420525,-9.899346 -21.12675,-15.496524c-5.85322,-3.407543 -9.022456,-1.667448 -15.613532,-0.181786c-2.874666,5.922033 -6.443342,8.982828 -4.591523,20.264417c3.86409,2.446925 8.878642,18.892962 1.285067,19.023664c-21.140573,2.550337 -42.621543,-1.034226 -63.595818,3.423083c-5.222764,8.901289 -6.218803,28.898899 3.340105,34.543666c9.147684,3.329485 18.792614,1.677907 28.191001,2.078272c0.000571,8.420983 -1.105356,19.167371 6.319278,23.39753c5.482297,9.001548 5.867828,22.225317 14.701817,28.811982c7.429653,9.584002 18.005951,12.544564 28.322108,12.228582c16.915962,0.288693 34.72154,2.330157 50.781428,-5.725043l0,-0.000639l0.000005,0.000013z" stroke-opacity="null" stroke-width="0" fill="#ff0000"/>
 </g>
</svg>